<svg width="124" height="104" viewBox="0 0 124 104" fill="none" xmlns="http://www.w3.org/2000/svg"><path d="M11.5 37C9 48 29.286 90.087 51 80.5c8-4 7-13.5 7-13.5-1-8-6.931-7.615-8.5-16.5s5.477-23.465-11.5-30C27.136 16.32 14.953 23.114 11.5 37z" fill="url(#a)"/><path d="M111.54 58.983c2.5 11-17.786 53.087-39.5 43.5-8-4-7-13.5-7-13.5 1-8 6.931-7.615 8.5-16.5s-5.478-23.465 11.5-30c10.863-4.182 23.047 2.614 26.5 16.5z" fill="url(#b)"/><ellipse cx="41.325" cy="8.716" rx="6.693" ry="8.272" transform="rotate(3.81 41.325 8.716)" fill="url(#c)"/><ellipse rx="6.693" ry="8.272" transform="scale(-1 1) rotate(3.809 -502.437 -1213.303)" fill="url(#d)"/><ellipse cx="26.548" cy="10.378" rx="4.911" ry="6.069" transform="rotate(-6.31 26.548 10.378)" fill="url(#e)"/><ellipse rx="4.911" ry="6.069" transform="scale(-1 1) rotate(-6.31 245.275 891.396)" fill="url(#f)"/><ellipse cx="16.153" cy="15.295" rx="3.664" ry="4.528" transform="rotate(-25.49 16.153 15.295)" fill="url(#g)"/><ellipse rx="3.664" ry="4.528" transform="scale(-1 1) rotate(-25.49 28.96 254.919)" fill="url(#h)"/><ellipse cx="8.464" cy="22.733" rx="3.164" ry="3.911" transform="rotate(-56.031 8.464 22.733)" fill="url(#i)"/><ellipse rx="3.164" ry="3.911" transform="scale(-1 1) rotate(-56.031 -15.266 130.03)" fill="url(#j)"/><ellipse cx="4.033" cy="32.523" rx="2.837" ry="3.506" transform="rotate(-77.61 4.033 32.523)" fill="url(#k)"/><ellipse rx="2.837" ry="3.506" transform="scale(-1 1) rotate(-77.61 -25.613 101.247)" fill="url(#l)"/><defs><linearGradient id="a" x1="20.145" y1="25.446" x2="72.087" y2="73.999" gradientUnits="userSpaceOnUse"><stop stop-color="#74E6CF"/><stop offset="1" stop-color="#C0E594"/></linearGradient><linearGradient id="b" x1="102.895" y1="47.428" x2="50.953" y2="95.982" gradientUnits="userSpaceOnUse"><stop stop-color="#74E6CF"/><stop offset="1" stop-color="#C0E594"/></linearGradient><linearGradient id="c" x1="37.168" y1="2.073" x2="50.918" y2="16.006" gradientUnits="userSpaceOnUse"><stop stop-color="#74E6CF"/><stop offset="1" stop-color="#C0E594"/></linearGradient><linearGradient id="d" x1="2.535" y1="1.629" x2="16.286" y2="15.563" gradientUnits="userSpaceOnUse"><stop stop-color="#74E6CF"/><stop offset="1" stop-color="#C0E594"/></linearGradient><linearGradient id="e" x1="23.497" y1="5.504" x2="33.586" y2="15.727" gradientUnits="userSpaceOnUse"><stop stop-color="#74E6CF"/><stop offset="1" stop-color="#C0E594"/></linearGradient><linearGradient id="f" x1="1.86" y1="1.195" x2="11.949" y2="11.418" gradientUnits="userSpaceOnUse"><stop stop-color="#74E6CF"/><stop offset="1" stop-color="#C0E594"/></linearGradient><linearGradient id="g" x1="13.877" y1="11.659" x2="21.404" y2="19.285" gradientUnits="userSpaceOnUse"><stop stop-color="#74E6CF"/><stop offset="1" stop-color="#C0E594"/></linearGradient><linearGradient id="h" x1="1.388" y1=".892" x2="8.914" y2="8.518" gradientUnits="userSpaceOnUse"><stop stop-color="#74E6CF"/><stop offset="1" stop-color="#C0E594"/></linearGradient><linearGradient id="i" x1="6.499" y1="19.593" x2="12.999" y2="26.18" gradientUnits="userSpaceOnUse"><stop stop-color="#74E6CF"/><stop offset="1" stop-color="#C0E594"/></linearGradient><linearGradient id="j" x1="1.199" y1=".77" x2="7.699" y2="7.357" gradientUnits="userSpaceOnUse"><stop stop-color="#74E6CF"/><stop offset="1" stop-color="#C0E594"/></linearGradient><linearGradient id="k" x1="2.271" y1="29.708" x2="8.1" y2="35.614" gradientUnits="userSpaceOnUse"><stop stop-color="#74E6CF"/><stop offset="1" stop-color="#C0E594"/></linearGradient><linearGradient id="l" x1="1.075" y1=".691" x2="6.903" y2="6.597" gradientUnits="userSpaceOnUse"><stop stop-color="#74E6CF"/><stop offset="1" stop-color="#C0E594"/></linearGradient></defs></svg>