<svg width="38" height="30" viewBox="0 0 38 30" fill="none" xmlns="http://www.w3.org/2000/svg"><path d="M33.328 9.281a14.861 14.861 0 0 0-3.293-4.887 15.08 15.08 0 0 0-5.015-3.297A15.206 15.206 0 0 0 19.315 0h-.02c-1.962 0-3.879.362-5.69 1.085-1.188.475-2.396 1.09-3.418 1.84-.076.048-.152.142-.152.142l.053.392 1.403.004a14.125 14.125 0 0 1 7.808-2.344c3.598 0 7.192 1.357 9.928 4.066a13.936 13.936 0 0 1 2.862 4.089l.02.068 1.211-.008.008-.053zM26.468 26.918a14.037 14.037 0 0 1-7.169 1.952h-.019c-3.746-.038-7.267-1.459-9.912-4.081a13.884 13.884 0 0 1-2.77-3.897H5.35a14.958 14.958 0 0 0 3.209 4.692 15.101 15.101 0 0 0 5.015 3.305A15.223 15.223 0 0 0 19.28 30h.02a15.282 15.282 0 0 0 9.195-3.082c-.213-.02-1.882-.02-2.027 0zM17.02 9.538c.103-.027.202-.042.297-.05h-.404c.016.035.023.057.027.065.034-.008.057-.011.08-.015zM28.5 19.475c.129-.158.136-.268.03-.445-.294-.493-.584-.987-.877-1.48l-.709-1.199c.278-.26.637-.279.922-.041.073.06.13.135.191.203.11.124.29.147.423.049.13-.094.172-.268.08-.4-.267-.388-.633-.625-1.12-.629-.473-.003-.847.208-1.129.57-.099.127-.106.255-.022.391.24.392.48.784.716 1.18l.652 1.1c.084.143.168.283.251.43-.179.17-.38.244-.62.188a.85.85 0 0 1-.5-.34.319.319 0 0 0-.435-.07c-.133.094-.175.282-.08.414.286.403.675.63 1.182.618.438 0 .777-.207 1.044-.54zm-.214-3.101c.007.007.011.015.019.026.019-.015.057-.023.06-.041a.153.153 0 0 0-.01-.102c-.027-.045-.104-.083-.031-.132.065-.045.106.023.14.068.08.105.054.24-.06.301-.035.019-.092.015-.134.008-.022-.004-.045-.05-.041-.076-.008-.018.03-.037.057-.052zm-.275 2.14c.023-.008.065.004.08.023.038.049.065.109.096.165l.243.411c.023.038.039.083.046.106 0 .105-.14.297-.22.32-.02.004-.058-.004-.07-.023-.01-.015-.007-.049 0-.067.012-.023.043-.042.062-.06.099-.099.11-.155.038-.276-.092-.158-.187-.316-.279-.47-.011-.02-.026-.039-.026-.054.007-.026.015-.067.03-.075zm-.118-.098a1.469 1.469 0 0 1-.13-.222c-.01-.023.02-.06.031-.083.08.004.232.264.206.305-.034.038-.076.041-.107 0zM23.98 16.02c-.294-.332-.656-.52-1.114-.494-.43.026-.77.233-1.017.572a.414.414 0 0 0-.08.238 16.46 16.46 0 0 0-.004.968c0 .08.034.166.076.23.069.102.16.189.24.283-.08.09-.168.177-.24.271a.361.361 0 0 0-.08.188c-.008.46-.011.924-.004 1.384.004.207.21.339.408.278.133-.041.213-.154.213-.316 0-.384 0-.769.004-1.15a.23.23 0 0 1 .057-.135.704.704 0 0 1 .542-.219c.091.004.183.004.274 0a.306.306 0 0 0 .297-.309.31.31 0 0 0-.312-.301 3.586 3.586 0 0 0-.286 0 .695.695 0 0 1-.537-.245.158.158 0 0 1-.035-.094c-.004-.234 0-.468 0-.701 0-.03.008-.064.027-.087a.695.695 0 0 1 .694-.23c.194.05.335.17.445.324.08.11.191.155.324.132.21-.034.332-.256.23-.433-.024-.053-.077-.102-.123-.155zm-1.727 3.666a.317.317 0 0 1-.092.132c-.023.019-.076.004-.114.007a1.04 1.04 0 0 1 .038-.098c.02-.045.046-.09.057-.14.012-.048-.004-.105.004-.154.004-.026.034-.049.053-.075.023.023.054.045.065.072.012.026.004.06.004.094h.008c-.008.056-.004.113-.023.162zm-.046-.403c-.057.007-.065-.046-.061-.09 0-.046 0-.099.061-.091.03.004.053.049.1.09-.047.042-.07.087-.1.09zm1.014-1.364c.034-.004.064-.023.099-.03.026-.004.057.003.087.003-.003.03 0 .076-.019.09-.045.03-.103.05-.167.076-.035-.026-.084-.049-.088-.075-.015-.06.038-.06.088-.064zm.697-1.432a.184.184 0 0 1-.118.018c-.027-.007-.057-.045-.065-.075-.004-.015.046-.041.069-.06.007.007.015.019.023.026.019-.015.053-.03.057-.049a.16.16 0 0 0-.015-.094c-.03-.041-.103-.083-.03-.132.064-.045.106.026.14.068.08.102.053.233-.06.298zM25.816 16.189a.304.304 0 0 0-.02-.607 72.874 72.874 0 0 0-1.28-.004.306.306 0 0 0-.297.37c.03.143.156.237.324.24.095.005.194 0 .29 0-.004 1.063-.004 2.107-.008 3.159h-.282c-.194 0-.335.128-.34.305-.003.18.138.313.34.313.404 0 .804.003 1.208.003.194 0 .335-.128.34-.305.003-.177-.146-.313-.34-.313h-.286c.004-1.055.004-2.099.008-3.161.122 0 .232.007.343 0zm-.065-.219c.03 0 .061-.026.095-.03.027-.004.069-.004.077.008.011.022.011.067-.004.079-.046.034-.103.056-.172.09-.038-.03-.095-.053-.099-.083-.004-.056.054-.06.103-.064zm.023 3.787c.034-.003.069-.026.107-.034.026-.003.072-.003.076.008.011.023.011.072-.004.083-.05.034-.11.056-.179.087-.038-.03-.084-.05-.088-.076-.011-.06.042-.06.088-.068zm-.507-2.095c0-.045 0-.094.065-.094s.06.049.06.094v1.342c0 .045.005.094-.06.094s-.061-.05-.061-.094c-.004-.449-.004-.893-.004-1.342zm.053 1.696c-.06.004-.057-.053-.057-.094 0-.046.008-.098.069-.087.03.008.05.053.091.102-.045.038-.072.079-.103.079z" fill="#696969"/><path d="M17.45 9.489a1.631 1.631 0 0 0-.541.049c-.022.004-.045.011-.08.015-.003-.008-.01-.03-.026-.064-.255-.637-2.287-5.668-2.332-5.788l-4.349-.023c.027.204.057.366.088.543.026.158.042.222.084.384.022.08.045.106.133.106.59-.004 1.044 0 1.631 0h.114c-.61.267-1.196.523-1.795.787-.045-.098-.099-.2-.133-.305-.053-.166-.11-.328-.145-.497-.084-.411-.114-.566-.167-.87a11.483 11.483 0 0 1-.092-.717c-.038-.026-.038-.034-.076-.06-.18.038-.358.068-.534.11a2.95 2.95 0 0 0-.872.38.994.994 0 0 0-.42.49 5.547 5.547 0 0 0-.243.693c-.05.192-.058.4-.065.6-.027.628-.038 1.262-.065 1.89 0 .039-.03.088-.065.114-.423.365-.82.761-1.189 1.176-.743.832-1.38 1.74-1.944 2.698-.838 1.417-1.417 2.928-1.802 4.514-.107.441-.172.893-.256 1.338-.015.08.016.11.103.106.252-.012.503-.027.755-.042.473-.026.945-.049 1.43-.056a.614.614 0 0 0-.07.037c-.278.155-.564.29-.826.464-.294.192-.568.41-.854.622a.193.193 0 0 0-.057.052c-.023.046-.027.09.045.102.282.042.568.087.85.12.682.084 1.368.117 2.058.091.465-.019.934-.056 1.399-.11.983-.112 1.928-.365 2.854-.696.77-.28 1.498-.637 2.21-1.033.168-.094.34-.184.511-.282.05-.027.08-.02.126.015.461.377.976.655 1.578.753.427.068.85.05 1.27-.034.342-.068.674-.177.978-.339.065-.034.122-.075.191-.12a4.825 4.825 0 0 0-.743-.935c-.278-.282-.572-.55-.861-.829.171-.106.346-.211.518-.32.088-.053.171-.11.263-.159.027-.015.069-.018.091-.007.423.222.945-.075.938-.55 0-.023.004-.045.004-.072.099.004.194.004.285.015.023.004.05.042.061.072.275.67.546 1.341.816 2.012l.374.923 1.086 2.638c.011.03.023.064.038.098-6.231-.011-12.45-.022-18.678-.038v-.098c.007-4.533.019-9.066.03-13.6 0-.045.02-.105.054-.135.35-.336.705-.667 1.06-.995a.207.207 0 0 1 .125-.038c1.723 0 3.342.004 5.065.008.137 0 .137 0 .167-.132.077-.31.191-.607.393-.86.004-.007.008-.014.011-.03h-.099c-2.046-.003-3.997-.007-6.044-.014a.24.24 0 0 0-.18.071c-.502.501-1.02.991-1.539 1.481-.023.019-.045.038-.065.057C.02 10.397.008 15.533 0 20.666c6.75.011 13.503.026 20.252.038.14.343.278.686.42 1.032.125.31.247.614.373.923l1.086 2.638.339.89a.506.506 0 0 0 .473.324h.811c-.152-.385-.305-.773-.46-1.157-.725-1.802-1.45-3.607-2.177-5.408a19.344 19.344 0 0 0-.278-.648c-.02-.045-1.685-4.19-1.73-4.318-.004-.016.019-.05.041-.065a2.64 2.64 0 0 1 .725-.391c.491-.189 1.01-.29 1.532-.355.316-.037.636-.068.952-.101.073-.008.145-.03.218-.05-.054.121-.378.404-.72.6-.275.154-.56.282-.805.407.24-.027.507-.117.77-.223a7.658 7.658 0 0 0 1.704-.968c.282-.211.594-.377.899-.55.732-.415 1.482-.8 2.29-1.048.404-.124.82-.218 1.231-.328.027-.007.05-.007.092-.011-.02.023-.03.038-.042.049-.857.727-.987 1.948-.423 2.913.274.47.66.833 1.15 1.085.062.03.085.064.085.132-.004 1.19-.008 2.382-.008 3.572 0 .174.088.302.236.336.21.049.393-.094.393-.317.004-.331.004-.663.004-.995v-.43c.373 0 .743 0 1.124.005v.101c0 .445-.004.89-.004 1.334 0 .219.172.355.377.313a.31.31 0 0 0 .244-.282c.004-.03 0-.057 0-.087.004-1.165.004-2.329.008-3.497v-.132c.08.053.149.09.206.14.148.131.225.308.278.493.084.279.164.558.248.837.068.222.194.407.385.546.095.068.186.14.278.215a.36.36 0 0 1 .133.282c.008.332.027.664.004.991-.034.52-.08 1.04-.156 1.557-.153 1.01-.492 1.96-1.124 2.788-.328.426-.671.845-1.022 1.252-.206.237-.48.399-.754.553-.168.095-.324.208-.5.283-.29.12-.587.23-.888.32a6.2 6.2 0 0 1-1.23.245c-.008 0-.016.004-.023.023h.114c.42 0 .834.004 1.254.004.038 0 .076.007.114.007 2.584.004 5.168.012 7.756.015.213-.21.423-.425.636-.636.343-.336.682-.675 1.025-1.007a.184.184 0 0 0 .061-.143c.004-3.177.008-6.35.015-9.526.004-1.854.004-3.708.008-5.562v-.132c-6.955-.027-13.625-.038-20.55-.053zM2.905 16.242c-.046.049-.103.083-.156.124-.05.038-.1.08-.149.125-.103-.159.057-.381.221-.4.038-.004.095.015.11.042.016.022 0 .082-.026.109zm11.685-9.274l.06.15c-.136.057-.274.11-.407.17-.42.189-.835.38-1.25.573a18.14 18.14 0 0 0-2.767 1.632c-.03.022-.072.03-.11.037.53-.603 3.597-2.355 4.474-2.562zM6.39 9.025c.24-.27.477-.542.728-.802.236-.241.488-.471.732-.701.05-.045.072-.087.072-.155 0-.508-.007-1.013.008-1.522.011-.43.042-.86.14-1.278.024-.09.066-.18.1-.267.011-.026.034-.05.05-.072.034.449.057.89.106 1.327.05.44.118.878.27 1.311.111-.086.214-.162.313-.241.015-.011.015-.045.012-.068-.05-.343-.118-.69-.149-1.032-.05-.524-.023-1.048.145-1.557a.227.227 0 0 1 .042-.079c-.035.833.099 1.632.465 2.393.023-.011.038-.015.05-.023.09-.056.186-.109.285-.17a4.062 4.062 0 0 1-.122-2.143.121.121 0 0 1 .038-.072c.042.343.073.69.134 1.029.06.343.179.67.385.968.03-.015.06-.026.087-.037.835-.366 1.67-.735 2.512-1.09.13-.052.29-.03.438-.045.004.012.004.023.008.034a3.984 3.984 0 0 0-.225.083c-.385.166-.782.32-1.155.509-.587.294-1.17.603-1.742.927a14.009 14.009 0 0 0-2.866 2.155c-.343.332-.659.683-.987 1.025-.06.065-.14.098-.29.106.138-.177.271-.35.416-.513zm-1.696 4.813c.389 0 .701.301.701.678-.022.094-.327.501-.697.675-.4 0-.713-.298-.713-.679-.003-.377.31-.674.71-.674zm.728 3.248c-.171.11-.358.113-.556.075.06-.003.122-.007.183-.015l.08-.011c.194-.042.316-.15.339-.309.027-.158-.069-.313-.255-.407-.218-.113-.454-.15-.694-.166-.206-.015-.415-.011-.621-.015-.016 0-.03-.004-.05-.004.427-.075.854-.105 1.265.038.13.045.26.117.366.204.221.184.187.456-.057.61zm.846-2.879c-.48-.015-.838-.256-1.097-.637-.092-.132-.035-.328.099-.414a.333.333 0 0 1 .43.067c.069.08.138.162.218.226.27.208.617.178.868-.063-.285-.487-.571-.973-.857-1.455l-.74-1.251a.32.32 0 0 1 .027-.4c.313-.392.713-.614 1.25-.561a1.43 1.43 0 0 1 .99.592c.108.154.085.331-.06.437a.345.345 0 0 1-.457-.053c-.065-.072-.13-.155-.206-.215a.646.646 0 0 0-.884.053l.057.102c.435.734.869 1.473 1.307 2.208.077.128.16.248.24.377.096.147.088.29-.026.425-.298.359-.671.58-1.159.562zm2.016 2.133a2.325 2.325 0 0 1-.789.4c-.06.018-.125.033-.19.052-.004-.008-.008-.015-.008-.023l.107-.048c.293-.132.564-.29.796-.51.462-.436.55-.941.256-1.503l-.103-.184c.007-.008.007-.008.011-.008.19-.034.195-.038.27.136.268.572.214 1.24-.35 1.688zm1.326-2.314a.446.446 0 0 1-.057-.219c-.004-.43 0-.859 0-1.288v-.113c-.362 0-.716 0-1.09-.004v.094c0 .445 0 .89-.003 1.334a.31.31 0 0 1-.183.294.304.304 0 0 1-.328-.026c-.095-.068-.134-.162-.134-.28.004-.93.004-1.86.008-2.791 0-.313 0-.63.004-.943 0-.188.133-.32.316-.32s.324.136.324.32c0 .524 0 1.052-.004 1.576v.109c.37 0 .724 0 1.09.004v-.106c0-.516 0-1.032.004-1.549 0-.286.217-.422.488-.309a.27.27 0 0 1 .168.253c.003.071 0 .143 0 .215-.004 1.187-.004 2.377-.008 3.564 0 .155-.08.257-.236.306-.137.041-.29 0-.359-.12zm.05 2.438c.023-.022.046-.049.069-.071.346-.347.617-.735.708-1.218a1.63 1.63 0 0 0 .012-.636c-.015-.095-.011-.166.076-.223.015-.011.023-.034.038-.056.317.67-.183 1.895-.903 2.204zm1.684-5.177a.19.19 0 0 0 .05.112c.145.148.324.23.537.227.088-.004.18-.004.267 0 .183.007.316.143.313.32a.308.308 0 0 1-.32.301h-.275a.738.738 0 0 0-.541.242.13.13 0 0 0-.03.082c-.004.23-.004.46 0 .694 0 .034.022.079.045.105.29.302.717.298 1.01-.007.03-.034.065-.068.092-.106.118-.165.327-.177.48-.079.148.098.175.31.05.46-.416.501-1.003.742-1.643.475a1.347 1.347 0 0 1-.614-.509.424.424 0 0 1-.06-.204c-.005-.312 0-.629-.005-.941 0-.102.023-.189.092-.264.076-.087.156-.174.236-.26-.084-.095-.175-.185-.251-.287a.377.377 0 0 1-.069-.188 26.122 26.122 0 0 1 0-.954c0-.06.027-.132.061-.184.5-.731 1.467-.814 2.096-.185.053.053.11.106.156.162.118.15.1.35-.042.456a.353.353 0 0 1-.48-.072c-.126-.162-.274-.286-.484-.331-.217-.045-.522.064-.651.237a.143.143 0 0 0-.02.08c-.003.21-.003.414 0 .617zm4.997 5.358c-.839.483-2.142.456-3.19-.43.065-.037.126-.075.19-.105.016-.008.05.008.065.023.378.369.835.588 1.365.66.304.04.61.033.91-.02.221-.034.443-.083.66-.128zm-.282-.335c-.534.294-1.456.286-2.256-.452.087-.099.099-.099.198-.016.465.407 1.021.554 1.63.517.138-.004.271-.03.428-.05zm-.358-.366c-.256.147-1.06-.15-1.304-.475.038-.03.076-.056.122-.094.32.332.694.554 1.181.57zm-1.708-4.639c0 .03.012.06.034.083a.726.726 0 0 0 .526.241h.286c.19.004.324.14.32.32-.003.178-.14.302-.327.302h-.24a.738.738 0 0 0-.55.223.2.2 0 0 0-.049.12c-.004.222-.004.445 0 .667a.2.2 0 0 0 .046.113c.29.305.724.298 1.014-.011.034-.038.064-.08.099-.12a.33.33 0 0 1 .438-.069c.137.09.183.294.084.43-.526.742-1.479.825-2.096.207-.042-.041-.076-.086-.115-.132a.475.475 0 0 1-.106-.425 1.902 1.902 0 0 0 0-.705c-.027-.155.003-.268.095-.37.072-.082.149-.161.225-.244-.084-.09-.175-.181-.252-.283a.386.386 0 0 1-.072-.196c-.008-.313-.004-.63 0-.942 0-.064.027-.14.065-.192.56-.807 1.684-.803 2.248 0a.314.314 0 0 1-.068.44.326.326 0 0 1-.45-.07c-.126-.167-.274-.299-.488-.336-.263-.05-.473.056-.652.237-.015.015-.019.05-.022.072.007.218.003.43.007.64zm4.356 1.39c0 .05-.011.11-.038.148-.008.015-.019.026-.027.037-.24.328-.556.543-.964.592l-.14.011a.877.877 0 0 1-.557-.173v.535c-.004.226-.19.37-.404.317a.305.305 0 0 1-.233-.302v-.667c.004-1.002.004-2.005.004-3.007v-.064c0-.143.05-.256.183-.316.137-.06.26-.03.355.06.16-.045.308-.102.465-.125.548-.082 1.044.2 1.318.61a.283.283 0 0 1 .042.13c0 .01.004.022.004.037 0 .723-.004 1.45-.008 2.178zm10.968 7.044a.387.387 0 0 1-.099.124c-.019.015-.06.004-.095.004.008-.034.012-.064.023-.098.023-.06.053-.117.069-.177.011-.045-.004-.098.007-.147.004-.023.038-.045.065-.049.015-.004.046.034.05.053.007.037.003.079.003.12h.008c-.012.06-.012.121-.03.17zm.02-2.163c-.004.026-.039.045-.058.072-.019-.023-.057-.046-.057-.072a2.097 2.097 0 0 1 0-.31c0-.022.042-.04.065-.063.019.022.05.041.053.064.008.049.004.102.004.154-.004.05.004.102-.008.155zm-.119.806c0-.026.035-.071.057-.075.054-.008.061.038.061.083v.836c0 .046-.007.09-.06.08-.023-.004-.058-.05-.058-.08a31.251 31.251 0 0 1 0-.844zm.065-1.262c-.06.011-.065-.042-.065-.087 0-.041-.004-.098.057-.09.031.004.054.045.096.083-.035.041-.057.086-.088.094zm1.28.486h-.007v.015c-.377 0-.743-.004-1.113-.004 0-.47.004-.942.004-1.42h.008v-.023c.37.064.739.08 1.112.004 0 .478-.003.938-.003 1.428zm.511 2.133a.498.498 0 0 1-.13.14c-.01.007-.056-.004-.064-.02-.012-.018-.008-.067.004-.075.095-.06.084-.154.091-.245.004-.053-.038-.143.061-.14.096 0 .05.091.061.144v.026h.008c-.012.06-.004.121-.03.17zm-.038-.433c-.099 0-.06-.083-.06-.136 0-.05-.035-.132.06-.132.092 0 .046.087.084.147-.03.041-.057.12-.084.12zm.149-3.464c-.015-.03-.023-.049-.035-.067a.315.315 0 0 0-.339-.155.31.31 0 0 0-.247.283c-.008.117-.008.113-.13.124a2.624 2.624 0 0 1-.922-.087c-.05-.01-.073-.034-.084-.082-.05-.215-.27-.306-.473-.204-.03.015-.084.015-.106 0-.675-.418-1.132-.991-1.277-1.767-.088-.475.015-.931.217-1.364.358-.78.976-1.225 1.845-1.342.263-.034.53-.053.785.015.297.08.522.245.594.554.1.426-.179.829-.617.904-.088.015-.171.038-.24.053a17.985 17.985 0 0 1-.18-.245c-.01.008-.018.011-.03.02.02.09.02.188.122.252a4.694 4.694 0 0 1-.14.067.61.61 0 0 0-.294-.263c.05.139.118.237.225.316l-.077.087c-.106-.057-.21-.11-.312-.166.038.128.156.237.248.26-.02.03-.039.056-.054.083-.122-.034-.247-.064-.37-.098-.003.011-.01.023-.015.034.115.064.225.132.347.203a.495.495 0 0 1-.019.072l-.393-.045c-.003.011-.003.022-.007.034.11.075.225.135.373.143v.102c-.11.015-.217.03-.324.041 0 .011 0 .026-.003.038l.35.06c.004.011.012.049.023.087l-.328.128c.004.011.004.022.008.037.118-.01.236-.018.37-.03.019.027.05.064.076.102-.11.05-.21.094-.313.136l.012.041c.122-.019.244-.034.362-.053v-.026c.019.026.042.053.057.075-.1.076-.194.147-.286.219.008.008.012.019.02.026.129-.019.258-.034.357-.143.042.034.084.072.122.102-.068.094-.133.18-.205.283.125.003.293-.098.335-.185.061.026.122.053.187.079a1.37 1.37 0 0 0-.069.245l.027.015c.06-.072.122-.143.19-.222.058.011.13.022.218.037v.238l.034.011.126-.252.186-.03.088.173h.03c.008-.042.02-.083.02-.124-.004-.065.019-.102.087-.117.038-.008.076-.03.13-.057l.091.132c.008-.004.016-.011.023-.015 0-.015.008-.034.004-.049-.069-.132.027-.18.114-.237.03.018.065.034.107.056.004-.026.015-.045.008-.056-.046-.08 0-.129.045-.189.157-.188.225-.4.115-.633a.289.289 0 0 0-.477-.09c-.068.067-.084.147-.053.24-.164-.04-.255-.286-.172-.436.13-.223.45-.313.694-.193.374.185.568.494.58.89.015.799-.359 1.39-1.068 1.782-.095.046-.194.09-.293.143zm1.463.905c-.19.305-.194.63-.133.965.011.071.038.143.06.214l-.018.02c-.057-.039-.118-.072-.168-.118-.171-.158-.248-.365-.316-.58-.057-.188-.107-.377-.172-.561-.103-.306-.244-.58-.56-.754.377-.207.732-.43.98-.769.24-.335.411-.704.419-1.138l.606.173.015-.015c-.076-.094-.137-.2-.225-.278-.137-.125-.29-.227-.43-.343a.209.209 0 0 1-.062-.068 1.235 1.235 0 0 0-.46-.554c-.294-.2-.801-.12-1.01.158a.501.501 0 0 0 .053.63c.13.12.282.112.442.075-.015-.046-.035-.083-.038-.125-.008-.067.019-.132.091-.15.076-.02.1.049.114.105a.355.355 0 0 1-.06.313c-.202.275-.48.433-.831.452a1.65 1.65 0 0 1-.492-.041c-.381-.11-.537-.404-.61-.758a.615.615 0 0 1 .05-.403.476.476 0 0 1 .305-.26c.103-.034.21-.064.316-.087.53-.128.861-.708.686-1.213-.027-.08-.076-.155-.103-.249.065.042.13.087.195.128.064.042.133.08.194.125.099.071.206.135.297.214.13.117.244.253.37.377.14.14.3.242.503.294.534.14.983.434 1.395.784.476.407.869.878 1.23 1.383.058.075.123.147.18.222.076.106.099.219.06.35-.342.039-.597-.116-.819-.346-.072.166.012.388.183.475a.81.81 0 0 0 .442.072l.088-.012c.141-.015.164-.004.183.136.03.215-.004.403-.202.55-.168.125-.313.279-.472.415a.325.325 0 0 1-.115.056c-.244.06-.488.042-.732.008-.308-.042-.617-.087-.93-.06a4.332 4.332 0 0 1-.22.018c-.138.004-.214.072-.279.17zm4.265-6.109l-.012 6.482c-.003 2.332-.003 4.665-.007 7.002a.18.18 0 0 1-.05.113c-.404.384-.812.765-1.22 1.145a.183.183 0 0 1-.117.045c-1.685 0-3.37-.003-5.05-.007-.023 0-.046-.004-.08-.008.023-.022.034-.041.05-.056a7.947 7.947 0 0 0 2.092-3.286c.183-.558.27-1.123.305-1.7.019-.301.068-.603.095-.904.034-.449.057-.9-.046-1.345-.034-.159-.103-.31-.126-.464a1.375 1.375 0 0 1 .061-.678.376.376 0 0 1 .34-.256c.198-.008.396-.004.59.01.26.02.519.05.778.076.183.015.362-.004.514-.117a.08.08 0 0 0 .023-.015c.11-.158.282-.245.434-.361.286-.22.366-.51.271-.852a.618.618 0 0 1-.023-.204.775.775 0 0 0-.133-.493c-.602-.8-1.277-1.53-2.12-2.096a1.702 1.702 0 0 0-.67-.278 1.058 1.058 0 0 1-.549-.287c-.16-.15-.312-.305-.468-.46a.488.488 0 0 0-.282-.154.106.106 0 0 1-.058-.03c-.262-.287-.605-.43-.987-.475-.594-.075-1.173-.004-1.703.286-.194.11-.37.257-.549.396a.383.383 0 0 1-.206.094c-.377.038-.743.14-1.101.257-.991.312-1.92.76-2.824 1.258-.473.26-.926.547-1.353.87-.008.004-.015.008-.027.012l.126-.294c-.53.049-1.052.09-1.57.143-.602.06-1.193.185-1.73.471-.157.083-.301.185-.462.283-.194-.467-.388-.938-.586-1.41.072-.067.14-.139.205-.214a.568.568 0 0 0 .138-.37c0-.727.003-1.454.003-2.185 0-.034-.003-.068-.007-.102.45-.008.9-.011 1.349-.011 2.035-.004 4.074 0 6.109.007 1.92.008 3.842.02 5.762.03l4.776.034h.106a.278.278 0 0 0-.011.098z" fill="#696969"/><path d="M17.737 12.526c-.004-.298 0-.595 0-.89v-.342-.565a.208.208 0 0 0-.057-.136 1.01 1.01 0 0 0-.122-.102c-.275-.18-.622-.143-.866.113a.188.188 0 0 0-.045.106c0 .271-.004.539-.004.81v1.033a.15.15 0 0 0 .038.097.701.701 0 0 0 .514.234.722.722 0 0 0 .477-.207.186.186 0 0 0 .065-.15zM16.479 11.117c-.008 0-.015-.004-.023 0-.019 0-.05.056-.05.09-.003.253-.003.501 0 .754 0 .03.035.06.054.09.015-.03.046-.056.05-.086.003-.129.003-.253.003-.381v-.373-.015c-.004-.034 0-.068-.034-.08zM18.187 12.496c.011-.011.022-.027.034-.038.011-.011.019-.023.019-.034.008-.094.004-.188.004-.282 0-.09.004-.185 0-.275 0-.027-.03-.053-.05-.08-.019.023-.053.05-.053.072-.004.132-.004.26-.004.392v.177c0 .023.034.045.05.068zM16.51 13.743c-.012-.049.026-.132-.054-.132-.091 0-.05.083-.053.136-.008.083 0 .166-.069.23-.019.019-.023.053-.03.079.03 0 .076.015.091 0a.406.406 0 0 0 .1-.143c.019-.042.011-.094.019-.143h-.004v-.027zM16.403 13.427c0 .03.034.06.053.086.023-.022.046-.045.08-.083-.034-.037-.057-.064-.08-.086-.023.026-.053.056-.053.083zM16.54 10.936c-.034-.038-.057-.06-.08-.087-.019.027-.053.057-.05.083 0 .03.035.06.054.09a.636.636 0 0 1 .076-.086zM18.137 12.677c-.008.037-.004.09.053.082.023-.003.042-.045.08-.086-.034-.034-.06-.057-.084-.083-.019.03-.042.056-.05.087zM10.069 13.498c.076 0 .065-.052.065-.098v-.467-.482c0-.042.007-.09-.061-.094-.07 0-.065.045-.065.09 0 .32-.004.64 0 .957.004.042-.008.095.06.095zM8.327 12.443c-.019.03-.053.06-.053.09-.008.144-.004.287-.004.434 0 .147-.004.29 0 .433 0 .03.034.06.053.095.02-.03.054-.06.054-.09.004-.29.004-.577 0-.867 0-.034-.03-.065-.05-.095zM10.134 13.762c0-.038.008-.075-.004-.113-.007-.023-.042-.053-.06-.053-.02 0-.05.034-.058.057-.008.045.007.094-.004.135-.015.06-.05.117-.073.178-.011.026-.015.052-.026.079.03 0 .06.01.088.003.137-.052.137-.17.137-.286zM8.373 13.645c-.004-.022-.034-.037-.053-.056-.02.018-.046.037-.05.06-.008.053.004.11-.008.162a.367.367 0 0 1-.053.14c-.023.03-.076.056-.03.094.019.015.083 0 .11-.023.092-.068.084-.17.084-.268.004-.034.012-.075 0-.109zM8.38 11.46c-.003-.023-.034-.042-.053-.064-.019.019-.05.037-.05.06a4.18 4.18 0 0 0 0 .31c0 .018.035.037.05.06.02-.023.05-.042.054-.065.007-.049.004-.098.004-.147-.004-.052.003-.105-.004-.154zM8.277 11.218c-.003.027.031.057.05.083l.084-.083c-.034-.041-.057-.064-.076-.09-.02.03-.054.06-.058.09zM12.79 10.729a.433.433 0 0 0 .183-.129c.042-.064.023-.147-.053-.192-.038-.022-.103-.064-.119-.049-.068.057.02.08.039.12.015.03.019.072.011.103-.004.022-.038.033-.061.052-.008-.007-.015-.019-.023-.026-.023.019-.046.038-.065.056.027.023.073.072.088.065zM12.848 13.45a.185.185 0 0 1 0 .101c-.008.023-.043.034-.05.057a.104.104 0 0 0 0 .067c.004.008.042.02.053.012.073-.042.138-.087.145-.204 0-.056-.038-.117-.11-.147a.297.297 0 0 0-.142-.015c-.015 0-.03.042-.046.064.024.012.046.027.07.038.026.011.072.011.08.026zM11.209 13.14c.015-.018.042-.034.045-.052.008-.053.004-.11.004-.162 0-.053.004-.106-.004-.155-.003-.023-.034-.038-.05-.056-.018.018-.049.037-.053.056a4.5 4.5 0 0 0 0 .32c.004.016.039.03.058.05zM12.417 14.007a6.85 6.85 0 0 0 .301-.215c.008-.007 0-.045-.011-.06-.012-.011-.046-.015-.061-.008-.092.053-.18.11-.268.17-.015.011-.026.041-.023.056.008.02.035.03.062.057zM12.18 12.206c.061-.023.111-.042.157-.068.019-.012.015-.05.023-.08-.027 0-.058-.007-.084-.003-.035.004-.065.022-.1.026-.042.004-.091.004-.08.06.008.027.054.042.084.065zM11.155 13.287c-.004.02.03.042.05.064l.08-.064a1.166 1.166 0 0 0-.077-.071c-.019.022-.05.045-.053.071zM14.821 14.082c.202-.06.381-.14.526-.275.012-.011.008-.053-.004-.064-.011-.011-.05-.011-.068-.004-.057.034-.107.083-.168.113-.091.046-.19.08-.282.125-.023.011-.046.037-.05.06.004.008.035.03.046.045zM15.405 10.732a.158.158 0 0 0 .106-.022c.123-.08.13-.223.012-.32-.023-.02-.076-.038-.096-.023-.05.034-.011.068.02.098.015.015.034.034.042.056.022.057-.02.113-.088.095-.023.018-.05.033-.073.052.03.02.05.057.077.064zM15.48 13.446a.157.157 0 0 1 .005.094c-.008.022-.038.038-.05.06-.011.023-.004.053-.008.08.027 0 .065.007.077-.005.046-.049.084-.105.133-.173-.045-.064-.08-.128-.13-.17-.026-.022-.087-.015-.13-.01-.018.003-.03.04-.041.063.023.012.046.027.072.034.023.008.065.008.073.027zM13.842 13.13c.015-.02.046-.035.046-.054.007-.053.004-.101.004-.154 0-.053.003-.11-.004-.162-.004-.023-.03-.038-.05-.06-.019.018-.053.037-.053.056a4.385 4.385 0 0 0 0 .32c.004.02.038.034.057.053zM13.826 11.075a.083.083 0 0 0 .058-.049c.011-.026.004-.056.004-.094 0 0 .007-.06 0-.087-.008-.023-.035-.038-.05-.056-.02.018-.05.034-.053.056a.72.72 0 0 0 0 .181c0 .019.03.053.041.049zM14.825 12.213c.062-.03.115-.049.16-.083.012-.007.005-.049.008-.072-.023 0-.05-.007-.068-.003-.035.007-.065.026-.096.03-.046.004-.1 0-.091.06-.004.027.05.045.087.068zM13.785 13.269c.004.026.034.049.053.071.02-.019.042-.037.077-.068-.035-.03-.058-.049-.077-.067-.019.022-.053.045-.053.064zM7.008 12.763c0-.003-.003-.007-.003-.007l-.073-.027c-.007.027-.027.057-.019.072.095.162.183.328.294.482.087.121.091.223-.031.317a.305.305 0 0 0-.06.06c-.012.015-.016.05-.009.06.016.016.046.027.069.02.092-.023.225-.197.225-.31-.008-.015-.012-.049-.03-.079-.123-.196-.245-.392-.363-.588zM6.944 13.796c-.023.004-.046.023-.069.038-.24.128-.484.192-.754.098-.023-.008-.054.015-.08.022.019.027.03.064.053.072.091.026.187.045.282.068.232-.011.434-.098.625-.211.019-.011.019-.045.027-.072-.027-.007-.058-.019-.084-.015zM7.169 10.702c.053.004.114.015.156-.008.13-.071.134-.226.016-.324-.023-.019-.065-.015-.096-.022.008.03.012.064.02.094.01.041.037.086.034.128-.004.023-.061.038-.092.053-.008-.008-.011-.02-.02-.027-.018.015-.049.027-.049.046-.004.018.02.056.03.06zM6.753 12.338c-.004-.008-.042-.004-.057.003-.011.008-.023.038-.015.05.046.079.091.158.145.237.007.011.038.015.057.007.015-.003.027-.026.042-.045-.061-.083-.114-.17-.172-.252zM4.733 15.081a.52.52 0 0 0 .458-.494c.007-.263-.19-.482-.47-.52-.193-.026-.521.117-.556.35.1-.112.225-.124.359-.101.145.023.22.102.225.222a.265.265 0 0 1-.214.272c-.137.026-.267.011-.373-.098.023.226.335.395.571.369z" fill="#696969"/></svg>