<svg width="30" height="30" viewBox="0 0 30 30" fill="none" xmlns="http://www.w3.org/2000/svg"><path d="M25.607 4.394A14.902 14.902 0 0 0 15 0C10.994 0 7.227 1.56 4.394 4.394A14.902 14.902 0 0 0 0 15c0 4.007 1.56 7.774 4.394 10.607A14.902 14.902 0 0 0 15 30c4.007 0 7.774-1.56 10.607-4.393A14.902 14.902 0 0 0 30 15c0-4.007-1.56-7.773-4.393-10.606zm-.663 20.55A13.97 13.97 0 0 1 15 29.063a13.971 13.971 0 0 1-9.944-4.119A13.97 13.97 0 0 1 .937 15a13.97 13.97 0 0 1 4.12-9.944A13.97 13.97 0 0 1 15 .937a13.97 13.97 0 0 1 9.944 4.12A13.97 13.97 0 0 1 29.063 15a13.97 13.97 0 0 1-4.12 9.944z" fill="#01A3A4"/><path d="M23.075 11.672c-.017-.13-.185-1.296-.731-1.889-.652-.726-1.394-.8-1.751-.837l-.085-.009a.426.426 0 0 0-.021-.002c-2.154-.167-5.405-.169-5.437-.169h-.008c-.032 0-3.283.002-5.436.169a3.808 3.808 0 0 1-.106.011c-.357.036-1.099.111-1.751.837-.546.593-.714 1.758-.732 1.89v.007a26.722 26.722 0 0 0-.158 2.719v1.249c0 1.345.15 2.663.157 2.719l.001.007c.018.132.186 1.296.732 1.889.604.67 1.368.769 1.78.822.071.009.134.017.177.025.014.003.029.006.044.007 1.242.127 5.127.166 5.297.168.033 0 3.286-.008 5.44-.172a.365.365 0 0 0 .023-.003l.088-.01c.356-.037 1.096-.114 1.746-.837.545-.592.713-1.757.73-1.888l.002-.008c.006-.055.157-1.374.157-2.719V14.4c0-1.344-.15-2.663-.157-2.719l-.001-.008zm-.78 3.976c0 1.254-.14 2.528-.15 2.608-.035.26-.199 1.056-.492 1.373l-.005.005c-.409.457-.853.503-1.147.534l-.098.01c-2.118.162-5.326.17-5.352.17-.04 0-3.963-.04-5.186-.161-.068-.013-.14-.022-.217-.032-.351-.045-.832-.107-1.204-.521a.305.305 0 0 1-.005-.006c-.26-.281-.44-.99-.492-1.373-.01-.082-.15-1.354-.15-2.607v-1.25c0-1.253.141-2.527.15-2.606.035-.26.199-1.058.492-1.375l.005-.005c.41-.458.855-.503 1.15-.533a6.26 6.26 0 0 0 .094-.01c2.117-.163 5.322-.165 5.354-.165h.007c.033 0 3.238.002 5.355.165l.095.01c.294.03.739.075 1.149.533l.005.005c.26.282.44.99.492 1.375.01.082.15 1.354.15 2.607v1.25z" fill="#01A3A4"/><path d="M18.185 14.624l-4.826-2.896a.47.47 0 0 0-.71.402v5.791a.469.469 0 0 0 .71.402l4.826-2.895a.469.469 0 0 0 0-.804zm-4.598 2.47v-4.136l3.446 2.068-3.446 2.067z" fill="#01A3A4"/></svg>