<svg width="30" height="30" viewBox="0 0 30 30" fill="none" xmlns="http://www.w3.org/2000/svg"><rect width="30" height="30" rx="15" transform="matrix(-1 0 0 1 30 0)" fill="#F0F8F6"/><rect x="4" y="4.001" width="22" height="22" rx="11" fill="url(#a)"/><g clip-path="url(#b)"><path d="M16.437 11.024l-1.018 1.045a.183.183 0 0 0 0 .256l1.725 1.76h-7.46a.183.183 0 0 0-.184.183v1.467c0 .101.082.183.183.183h7.461l-1.725 1.76a.183.183 0 0 0 0 .256l1.018 1.045a.183.183 0 0 0 .262 0l3.75-3.85a.183.183 0 0 0 0-.255l-3.75-3.85a.183.183 0 0 0-.262 0z" fill="#fff"/></g><defs><linearGradient id="a" x1="18.5" y1="18.502" x2="2" y2="10.002" gradientUnits="userSpaceOnUse"><stop stop-color="#74E6CF"/><stop offset="1" stop-color="#C0E594"/></linearGradient><clipPath id="b"><path fill="#fff" transform="rotate(-90 15 5.5)" d="M0 0h11v11H0z"/></clipPath></defs></svg>