<svg width="30" height="30" viewBox="0 0 30 30" fill="none" xmlns="http://www.w3.org/2000/svg"><rect width="30" height="30" rx="15" fill="#F0F8F6"/><rect width="22" height="22" rx="11" transform="matrix(-1 0 0 1 26 4.001)" fill="url(#a)"/><g clip-path="url(#b)"><path d="M13.563 11.024l1.018 1.045c.07.071.07.185 0 .256l-1.725 1.76h7.46c.102 0 .184.082.184.183v1.467a.183.183 0 0 1-.183.183h-7.461l1.725 1.76c.07.07.07.184 0 .256l-1.018 1.045a.183.183 0 0 1-.262 0l-3.75-3.85a.183.183 0 0 1 0-.255l3.75-3.85a.183.183 0 0 1 .262 0z" fill="#fff"/></g><defs><linearGradient id="a" x1="14.5" y1="14.5" x2="-2" y2="6" gradientUnits="userSpaceOnUse"><stop stop-color="#74E6CF"/><stop offset="1" stop-color="#C0E594"/></linearGradient><clipPath id="b"><path fill="#fff" transform="scale(1 -1) rotate(90 20.5 0)" d="M0 0h11v11H0z"/></clipPath></defs></svg>